
<svg width="611" height="139" viewBox="0 0 611 139" fill="none" xmlns="http://www.w3.org/2000/svg">
<path d="M53.074 98.936C50.002 100.131 47.6127 100.728 45.906 100.728C40.786 100.728 37.9273 100.003 37.33 98.552C28.7967 76.6213 23.1647 62.4987 20.434 56.184C20.178 58.488 19.4953 63.8213 18.386 72.184C16.082 88.568 14.93 102.179 14.93 113.016C14.93 115.661 15.1007 119.203 15.442 123.64C9.46867 123.64 5.41533 122.957 3.282 121.592C1.234 120.141 0.21 118.136 0.21 115.576C0.21 114.723 1.618 103.117 4.434 80.76C7.33533 58.4027 8.786 42.8293 8.786 34.04V33.4C6.31133 29.3893 3.70867 26.104 0.978001 23.544C4.13533 21.3253 7.93267 20.216 12.37 20.216C18.002 20.216 22.354 22.8613 25.426 28.152C28.498 33.3573 34.514 47.736 43.474 71.288L49.362 86.392C49.874 85.5387 50.642 84.3867 51.666 82.936C72.4873 52.1307 83.1967 31.224 83.794 20.216C83.794 20.3013 84.818 20.4293 86.866 20.6C88.914 20.6853 91.09 21.112 93.394 21.88C95.7833 22.5627 97.49 23.672 98.514 25.208C99.6233 26.6587 100.306 28.1093 100.562 29.56C100.818 30.9253 100.946 33.3147 100.946 36.728C100.946 40.056 99.538 51.3627 96.722 70.648C93.906 89.9333 92.498 103.459 92.498 111.224C92.498 118.904 93.0953 124.152 94.29 126.968C87.0367 125.091 82.0873 122.616 79.442 119.544C76.7967 116.387 75.474 112.035 75.474 106.488C75.474 103.245 76.3273 95.2667 78.034 82.552C79.826 69.8373 81.0633 59.6827 81.746 52.088C78.3327 57.976 73.4687 66.04 67.154 76.28C60.9247 86.52 57.17 92.6213 55.89 94.584C54.61 96.4613 53.6713 97.912 53.074 98.936ZM142.771 59.384C142.771 60.664 141.704 67.4053 139.571 79.608C137.523 91.7253 136.456 101.752 136.371 109.688C136.371 117.539 136.883 122.616 137.907 124.92C131.251 123.213 126.771 120.653 124.467 117.24C122.163 113.741 121.011 108.664 121.011 102.008C121.011 98.424 121.694 91.9387 123.059 82.552C124.424 73.1653 125.107 65.8693 125.107 60.664C125.107 55.4587 124.851 51.448 124.339 48.632C126.216 48.4613 127.966 48.376 129.587 48.376C134.536 48.376 137.95 49.2293 139.827 50.936C141.79 52.5573 142.771 55.3733 142.771 59.384ZM144.691 37.112C142.302 37.4533 140.211 37.624 138.419 37.624C129.63 37.624 125.235 34.552 125.235 28.408C125.235 26.1893 125.875 23.16 127.155 19.32C129.544 18.9787 131.635 18.808 133.427 18.808C142.216 18.808 146.611 21.88 146.611 28.024C146.611 30.2427 145.971 33.272 144.691 37.112ZM208.344 49.144C213.379 49.144 216.963 50.7227 219.096 53.88C221.315 56.952 222.424 61.176 222.424 66.552C222.424 71.8427 221.571 79.3093 219.864 88.952C218.243 98.5947 217.432 105.635 217.432 110.072C217.432 114.424 217.987 117.624 219.096 119.672C220.205 121.635 222.083 123.341 224.728 124.792C223.619 124.877 222.04 124.92 219.992 124.92C212.824 124.92 207.704 123.811 204.632 121.592C201.645 119.373 200.152 115.491 200.152 109.944C200.152 106.787 201.005 100.643 202.712 91.512C204.419 82.296 205.272 75.4267 205.272 70.904C205.272 65.272 203.565 62.456 200.152 62.456C198.189 62.456 195.971 63.608 193.496 65.912C191.021 68.216 188.632 71.3733 186.328 75.384C184.024 79.3093 182.104 84.3867 180.568 90.616C179.032 96.8453 178.264 103.075 178.264 109.304C178.264 115.448 178.52 120.013 179.032 123C176.301 123.171 174.509 123.256 173.656 123.256C168.792 123.256 165.293 122.403 163.16 120.696C161.027 118.989 159.96 116.173 159.96 112.248C159.96 110.541 160.856 103.971 162.648 92.536C164.44 81.1013 165.336 72.0133 165.336 65.272C165.336 58.4453 164.611 52.1733 163.16 46.456C169.389 48.4187 173.741 51.2347 176.216 54.904C178.691 58.488 179.928 62.6267 179.928 67.32C179.928 71.928 179.416 77.304 178.392 83.448C181.208 73.8907 185.645 65.784 191.704 59.128C197.763 52.472 203.309 49.144 208.344 49.144ZM254.677 97.144C254.677 107.299 257.749 112.376 263.893 112.376C267.136 112.376 270.293 110.627 273.365 107.128C276.437 103.629 278.912 98.936 280.789 93.048C282.752 87.16 284.416 80.888 285.781 74.232C287.232 67.4907 288.298 60.3653 288.981 52.856C290.176 38.3493 290.773 27.0427 290.773 18.936C290.773 10.744 290.432 4.6 289.749 0.503998C295.893 1.86933 300.202 4.77066 302.677 9.20799C305.152 13.6453 306.389 19.2347 306.389 25.976C306.389 32.7173 304.938 45.2613 302.037 63.608C299.221 81.9547 297.813 95.352 297.813 103.8C297.813 112.248 298.197 119.416 298.965 125.304C292.906 123.683 288.725 120.781 286.421 116.6C284.202 112.333 283.093 107 283.093 100.6C280.448 107.939 276.48 113.741 271.189 118.008C265.898 122.275 260.437 124.408 254.805 124.408C249.173 124.408 244.565 122.275 240.981 118.008C237.482 113.656 235.733 107.299 235.733 98.936C235.733 85.7093 239.36 74.36 246.613 64.888C253.866 55.3307 262.442 50.552 272.341 50.552C275.157 50.552 279.594 51.2347 285.653 52.6C280.362 53.9653 275.626 56.3547 271.445 59.768C267.349 63.096 264.149 66.936 261.845 71.288C257.066 79.9067 254.677 88.5253 254.677 97.144ZM333.808 98.808C333.808 102.819 334.533 106.104 335.984 108.664C337.52 111.139 339.653 112.376 342.384 112.376C346.395 112.376 350.192 110.029 353.776 105.336C357.445 100.643 360.347 94.6267 362.48 87.288C364.699 79.9493 365.808 72.9947 365.808 66.424C365.808 59.768 365.552 54.392 365.04 50.296C367.6 50.1253 369.392 50.04 370.416 50.04C374.768 50.04 378.053 50.8507 380.272 52.472C382.491 54.0933 383.6 56.9947 383.6 61.176C383.6 62.7973 382.576 69.4107 380.528 81.016C378.48 92.536 377.456 101.795 377.456 108.792C377.456 115.704 378.779 121.848 381.424 127.224C375.024 126.115 370.331 123.768 367.344 120.184C364.357 116.515 362.864 111.267 362.864 104.44C362.864 103.245 363.035 100.941 363.376 97.528C361.072 105.635 356.976 112.163 351.088 117.112C345.2 122.061 339.397 124.536 333.68 124.536C328.048 124.536 323.483 122.445 319.984 118.264C316.571 113.997 314.864 107.981 314.864 100.216C314.864 92.4507 316.229 84.9413 318.96 77.688C321.776 70.3493 325.957 64.1627 331.504 59.128C337.051 54.008 343.237 51.448 350.064 51.448C353.989 51.448 358 52.3867 362.096 54.264C353.477 57.336 346.608 63.3947 341.488 72.44C336.368 81.4 333.808 90.1893 333.808 98.808ZM402.13 119.8C401.106 118.093 400.466 116.472 400.21 114.936C399.954 113.315 399.826 110.84 399.826 107.512C399.826 104.184 401.234 91.0853 404.05 68.216C406.951 45.3467 408.402 29.6453 408.402 21.112C408.402 12.5787 407.89 7.032 406.866 4.47199C413.266 6.17866 417.618 8.78133 419.922 12.28C422.311 15.6933 423.506 20.5573 423.506 26.872C423.506 30.6267 422.269 42.8293 419.794 63.48C417.319 84.1307 416.082 100.771 416.082 113.4C416.082 116.131 416.253 119.971 416.594 124.92C408.829 124.579 404.007 122.872 402.13 119.8ZM462.396 59.384C462.396 60.664 461.329 67.4053 459.196 79.608C457.148 91.7253 456.081 101.752 455.996 109.688C455.996 117.539 456.508 122.616 457.532 124.92C450.876 123.213 446.396 120.653 444.092 117.24C441.788 113.741 440.636 108.664 440.636 102.008C440.636 98.424 441.319 91.9387 442.684 82.552C444.049 73.1653 444.732 65.8693 444.732 60.664C444.732 55.4587 444.476 51.448 443.964 48.632C445.841 48.4613 447.591 48.376 449.212 48.376C454.161 48.376 457.575 49.2293 459.452 50.936C461.415 52.5573 462.396 55.3733 462.396 59.384ZM464.316 37.112C461.927 37.4533 459.836 37.624 458.044 37.624C449.255 37.624 444.86 34.552 444.86 28.408C444.86 26.1893 445.5 23.16 446.78 19.32C449.169 18.9787 451.26 18.808 453.052 18.808C461.841 18.808 466.236 21.88 466.236 28.024C466.236 30.2427 465.596 33.272 464.316 37.112ZM496.609 83.448C499.681 65.9547 505.953 54.9893 515.425 50.552C517.814 49.4427 520.161 48.888 522.465 48.888C526.988 48.888 530.828 50.552 533.985 53.88C537.142 57.208 538.721 61.4747 538.721 66.68C538.721 71.8853 537.228 76.3653 534.241 80.12C531.34 83.7893 527.244 86.648 521.953 88.696L523.489 93.432C526.305 102.221 530.401 110.925 535.777 119.544C541.153 128.163 545.505 134.051 548.833 137.208C545.761 137.976 543.03 138.36 540.641 138.36C532.022 138.36 524.47 132.088 517.985 119.544C515.425 114.595 511.67 105.336 506.721 91.768C505.612 91.8533 503.99 91.896 501.857 91.896C501.345 91.4693 501.089 90.104 501.089 87.8C505.014 87.7147 508.513 87.032 511.585 85.752C514.657 84.472 517.046 82.808 518.753 80.76C521.996 76.5787 523.617 72.184 523.617 67.576C523.617 65.272 523.105 63.3947 522.081 61.944C521.142 60.408 519.777 59.64 517.985 59.64C514.828 59.64 511.585 61.9013 508.257 66.424C505.014 70.9467 502.241 77.2613 499.937 85.368C497.718 93.3893 496.609 100.941 496.609 108.024C496.609 115.021 496.865 120.013 497.377 123C494.646 123.171 492.854 123.256 492.001 123.256C487.137 123.256 483.638 122.445 481.505 120.824C479.372 119.117 478.305 116.429 478.305 112.76C478.305 109.091 479.073 102.093 480.609 91.768C485.132 60.024 487.393 35.9173 487.393 19.448C487.393 12.024 486.881 7.032 485.857 4.47199C492.257 6.17866 496.609 8.78133 498.913 12.28C501.302 15.6933 502.497 20.5573 502.497 26.872C502.497 31.1387 501.644 40.0987 499.937 53.752C498.316 67.4053 497.206 77.304 496.609 83.448ZM581.373 91.512C577.277 91.512 573.266 91.0427 569.341 90.104C569.256 90.9573 569.213 92.28 569.213 94.072C569.213 101.155 570.536 106.488 573.181 110.072C575.826 113.656 578.984 115.448 582.653 115.448C586.322 115.448 589.821 114.339 593.149 112.12C596.477 109.901 599.378 106.829 601.853 102.904C604.925 103.587 606.461 105.165 606.461 107.64C598.952 119.16 589.266 124.92 577.405 124.92C570.237 124.92 563.965 122.189 558.589 116.728C553.213 111.181 550.525 103.501 550.525 93.688C550.525 86.3493 551.933 79.3947 554.749 72.824C557.565 66.168 562.045 60.5787 568.189 56.056C574.333 51.448 581.117 49.144 588.541 49.144C596.05 49.144 601.554 50.8507 605.053 54.264C608.552 57.6773 610.301 62.1573 610.301 67.704C610.301 75.7253 607.485 81.6987 601.853 85.624C596.306 89.5493 589.48 91.512 581.373 91.512ZM586.749 57.08C582.397 57.08 578.728 59.768 575.741 65.144C572.754 70.52 570.792 77.048 569.853 84.728H571.773C579.197 84.728 584.658 82.808 588.157 78.968C591.741 75.128 593.533 70.52 593.533 65.144C593.533 62.9253 592.936 61.048 591.741 59.512C590.632 57.8907 588.968 57.08 586.749 57.08Z" fill="#1E90FF"/>
</svg>
